<mxfile host="Electron" modified="2024-01-09T18:11:50.482Z" agent="Mozilla/5.0 (Windows NT 10.0; Win64; x64) AppleWebKit/537.36 (KHTML, like Gecko) draw.io/22.1.2 Chrome/114.0.5735.289 Electron/25.9.4 Safari/537.36" etag="EWg_qBrYSFttsqBEqCdX" version="22.1.2" type="device">
  <diagram name="Page-1" id="fIzR6xPN2dY3mL_V_wqV">
    <mxGraphModel dx="463" dy="896" grid="1" gridSize="10" guides="1" tooltips="1" connect="1" arrows="1" fold="1" page="1" pageScale="1" pageWidth="850" pageHeight="1100" math="0" shadow="0">
      <root>
        <mxCell id="0" />
        <mxCell id="1" parent="0" />
        <mxCell id="9sgDPegWHwrfpYR-LG1N-1" value="" style="ellipse;whiteSpace=wrap;html=1;aspect=fixed;fillColor=#000000;" vertex="1" parent="1">
          <mxGeometry x="2100" y="100" width="40" height="40" as="geometry" />
        </mxCell>
        <mxCell id="9sgDPegWHwrfpYR-LG1N-2" value="&lt;font style=&quot;font-size: 10px;&quot;&gt;get_all_data_of_timestamp&lt;br&gt;&lt;/font&gt;" style="rounded=0;whiteSpace=wrap;html=1;" vertex="1" parent="1">
          <mxGeometry x="2055" y="181" width="130" height="40" as="geometry" />
        </mxCell>
        <mxCell id="9sgDPegWHwrfpYR-LG1N-6" value="" style="html=1;rounded=0;endArrow=none;endFill=0;strokeWidth=4;" edge="1" parent="1">
          <mxGeometry width="100" relative="1" as="geometry">
            <mxPoint x="2070" y="261" as="sourcePoint" />
            <mxPoint x="2170" y="261" as="targetPoint" />
            <Array as="points" />
          </mxGeometry>
        </mxCell>
        <mxCell id="9sgDPegWHwrfpYR-LG1N-8" value="" style="endArrow=classic;html=1;rounded=0;" edge="1" parent="1">
          <mxGeometry width="50" height="50" relative="1" as="geometry">
            <mxPoint x="2119.78" y="260" as="sourcePoint" />
            <mxPoint x="2119.78" y="360" as="targetPoint" />
          </mxGeometry>
        </mxCell>
        <mxCell id="9sgDPegWHwrfpYR-LG1N-9" value="" style="endArrow=classic;html=1;rounded=0;exitX=0.5;exitY=1;exitDx=0;exitDy=0;entryX=0.5;entryY=0;entryDx=0;entryDy=0;" edge="1" parent="1" source="9sgDPegWHwrfpYR-LG1N-1" target="9sgDPegWHwrfpYR-LG1N-2">
          <mxGeometry width="50" height="50" relative="1" as="geometry">
            <mxPoint x="2110" y="280" as="sourcePoint" />
            <mxPoint x="2160" y="230" as="targetPoint" />
          </mxGeometry>
        </mxCell>
        <mxCell id="9sgDPegWHwrfpYR-LG1N-10" value="" style="endArrow=classic;html=1;rounded=0;exitX=0.5;exitY=1;exitDx=0;exitDy=0;" edge="1" parent="1">
          <mxGeometry width="50" height="50" relative="1" as="geometry">
            <mxPoint x="2119.8" y="221" as="sourcePoint" />
            <mxPoint x="2120" y="260" as="targetPoint" />
          </mxGeometry>
        </mxCell>
        <mxCell id="9sgDPegWHwrfpYR-LG1N-11" value="" style="whiteSpace=wrap;html=1;aspect=fixed;dashed=1;fillOpacity=0;" vertex="1" parent="1">
          <mxGeometry x="1955" y="360" width="330" height="330" as="geometry" />
        </mxCell>
        <mxCell id="9sgDPegWHwrfpYR-LG1N-12" value="&lt;font style=&quot;font-size: 10px;&quot;&gt;calculate_cooling_level_needed_for_AC&lt;br&gt;&lt;/font&gt;" style="rounded=0;whiteSpace=wrap;html=1;" vertex="1" parent="1">
          <mxGeometry x="2020" y="480" width="200" height="40" as="geometry" />
        </mxCell>
        <mxCell id="9sgDPegWHwrfpYR-LG1N-13" value="&lt;font style=&quot;font-size: 10px;&quot;&gt;get_room_temperatures_and_target_vector&lt;br&gt;&lt;/font&gt;" style="rounded=0;whiteSpace=wrap;html=1;" vertex="1" parent="1">
          <mxGeometry x="2020" y="400" width="200" height="40" as="geometry" />
        </mxCell>
        <mxCell id="9sgDPegWHwrfpYR-LG1N-14" value="&lt;font style=&quot;font-size: 10px;&quot;&gt;set_all_ACs&lt;br&gt;&lt;/font&gt;" style="rounded=0;whiteSpace=wrap;html=1;" vertex="1" parent="1">
          <mxGeometry x="2020" y="570" width="200" height="40" as="geometry" />
        </mxCell>
        <mxCell id="9sgDPegWHwrfpYR-LG1N-15" value="" style="endArrow=classic;html=1;rounded=0;exitX=0.5;exitY=1;exitDx=0;exitDy=0;" edge="1" parent="1">
          <mxGeometry width="50" height="50" relative="1" as="geometry">
            <mxPoint x="2119.5" y="361" as="sourcePoint" />
            <mxPoint x="2119.7" y="400" as="targetPoint" />
          </mxGeometry>
        </mxCell>
        <mxCell id="9sgDPegWHwrfpYR-LG1N-16" value="" style="endArrow=classic;html=1;rounded=0;exitX=0.5;exitY=1;exitDx=0;exitDy=0;" edge="1" parent="1">
          <mxGeometry width="50" height="50" relative="1" as="geometry">
            <mxPoint x="2119.5" y="440" as="sourcePoint" />
            <mxPoint x="2119.7" y="479" as="targetPoint" />
          </mxGeometry>
        </mxCell>
        <mxCell id="9sgDPegWHwrfpYR-LG1N-17" value="" style="endArrow=classic;html=1;rounded=0;exitX=0.5;exitY=1;exitDx=0;exitDy=0;entryX=0.5;entryY=0;entryDx=0;entryDy=0;" edge="1" parent="1" target="9sgDPegWHwrfpYR-LG1N-14">
          <mxGeometry width="50" height="50" relative="1" as="geometry">
            <mxPoint x="2119.5" y="520" as="sourcePoint" />
            <mxPoint x="2119.7" y="559" as="targetPoint" />
          </mxGeometry>
        </mxCell>
        <mxCell id="9sgDPegWHwrfpYR-LG1N-20" value="" style="whiteSpace=wrap;html=1;aspect=fixed;dashed=1;fillOpacity=0;" vertex="1" parent="1">
          <mxGeometry x="2335" y="360" width="335" height="335" as="geometry" />
        </mxCell>
        <mxCell id="9sgDPegWHwrfpYR-LG1N-21" value="&lt;font style=&quot;font-size: 10px;&quot;&gt;get_suspicious_activity_time_config&lt;br&gt;&lt;/font&gt;" style="rounded=0;whiteSpace=wrap;html=1;" vertex="1" parent="1">
          <mxGeometry x="2490" y="495" width="175" height="35" as="geometry" />
        </mxCell>
        <mxCell id="9sgDPegWHwrfpYR-LG1N-22" value="&lt;font style=&quot;font-size: 10px;&quot;&gt;get_exterior_camera_images&lt;br&gt;&lt;/font&gt;" style="rounded=0;whiteSpace=wrap;html=1;" vertex="1" parent="1">
          <mxGeometry x="2350" y="445" width="160" height="35" as="geometry" />
        </mxCell>
        <mxCell id="9sgDPegWHwrfpYR-LG1N-23" value="&lt;font style=&quot;font-size: 10px;&quot;&gt;count_people_per_time_frame&lt;br&gt;&lt;/font&gt;" style="rounded=0;whiteSpace=wrap;html=1;" vertex="1" parent="1">
          <mxGeometry x="2350" y="550" width="162.5" height="40" as="geometry" />
        </mxCell>
        <mxCell id="9sgDPegWHwrfpYR-LG1N-24" value="" style="endArrow=classic;html=1;rounded=0;exitX=0.5;exitY=1;exitDx=0;exitDy=0;" edge="1" parent="1">
          <mxGeometry width="50" height="50" relative="1" as="geometry">
            <mxPoint x="2499.74" y="360" as="sourcePoint" />
            <mxPoint x="2500.24" y="399" as="targetPoint" />
          </mxGeometry>
        </mxCell>
        <mxCell id="9sgDPegWHwrfpYR-LG1N-25" value="" style="endArrow=classic;html=1;rounded=0;entryX=0.5;entryY=0;entryDx=0;entryDy=0;" edge="1" parent="1" target="9sgDPegWHwrfpYR-LG1N-22">
          <mxGeometry width="50" height="50" relative="1" as="geometry">
            <mxPoint x="2500" y="400" as="sourcePoint" />
            <mxPoint x="2504.91" y="440" as="targetPoint" />
          </mxGeometry>
        </mxCell>
        <mxCell id="9sgDPegWHwrfpYR-LG1N-26" value="" style="endArrow=classic;html=1;rounded=0;exitX=0.5;exitY=1;exitDx=0;exitDy=0;entryX=0.5;entryY=0;entryDx=0;entryDy=0;" edge="1" parent="1" target="9sgDPegWHwrfpYR-LG1N-23" source="9sgDPegWHwrfpYR-LG1N-22">
          <mxGeometry width="50" height="50" relative="1" as="geometry">
            <mxPoint x="2507" y="555" as="sourcePoint" />
            <mxPoint x="2507.2" y="594" as="targetPoint" />
          </mxGeometry>
        </mxCell>
        <mxCell id="9sgDPegWHwrfpYR-LG1N-27" value="" style="endArrow=classic;html=1;rounded=0;entryX=0.5;entryY=0;entryDx=0;entryDy=0;" edge="1" parent="1" target="9sgDPegWHwrfpYR-LG1N-20">
          <mxGeometry width="50" height="50" relative="1" as="geometry">
            <mxPoint x="2120" y="260" as="sourcePoint" />
            <mxPoint x="2129.78" y="370" as="targetPoint" />
          </mxGeometry>
        </mxCell>
        <mxCell id="9sgDPegWHwrfpYR-LG1N-28" value="" style="html=1;rounded=0;endArrow=none;endFill=0;strokeWidth=4;" edge="1" parent="1">
          <mxGeometry width="100" relative="1" as="geometry">
            <mxPoint x="2472.5" y="400" as="sourcePoint" />
            <mxPoint x="2527.5" y="400" as="targetPoint" />
            <Array as="points" />
          </mxGeometry>
        </mxCell>
        <mxCell id="9sgDPegWHwrfpYR-LG1N-29" value="" style="endArrow=classic;html=1;rounded=0;entryX=0.513;entryY=0.003;entryDx=0;entryDy=0;entryPerimeter=0;" edge="1" parent="1" target="9sgDPegWHwrfpYR-LG1N-21">
          <mxGeometry width="50" height="50" relative="1" as="geometry">
            <mxPoint x="2500" y="400" as="sourcePoint" />
            <mxPoint x="2430" y="460" as="targetPoint" />
            <Array as="points">
              <mxPoint x="2580" y="460" />
            </Array>
          </mxGeometry>
        </mxCell>
        <mxCell id="9sgDPegWHwrfpYR-LG1N-30" value="" style="endArrow=classic;html=1;rounded=0;exitX=0.5;exitY=1;exitDx=0;exitDy=0;entryX=0.5;entryY=0;entryDx=0;entryDy=0;" edge="1" parent="1" source="9sgDPegWHwrfpYR-LG1N-23" target="9sgDPegWHwrfpYR-LG1N-32">
          <mxGeometry width="50" height="50" relative="1" as="geometry">
            <mxPoint x="2422.17" y="565" as="sourcePoint" />
            <mxPoint x="2422.3599999999997" y="615.11" as="targetPoint" />
            <Array as="points">
              <mxPoint x="2431" y="610" />
            </Array>
          </mxGeometry>
        </mxCell>
        <mxCell id="9sgDPegWHwrfpYR-LG1N-32" value="&lt;font style=&quot;font-size: 10px;&quot;&gt;check_for_suspicious_activity&lt;br&gt;&lt;/font&gt;" style="rounded=0;whiteSpace=wrap;html=1;" vertex="1" parent="1">
          <mxGeometry x="2422.5" y="640" width="160" height="40" as="geometry" />
        </mxCell>
        <mxCell id="9sgDPegWHwrfpYR-LG1N-34" value="" style="endArrow=classic;html=1;rounded=0;exitX=0.516;exitY=0.984;exitDx=0;exitDy=0;entryX=0.5;entryY=0;entryDx=0;entryDy=0;exitPerimeter=0;" edge="1" parent="1" source="9sgDPegWHwrfpYR-LG1N-21" target="9sgDPegWHwrfpYR-LG1N-32">
          <mxGeometry width="50" height="50" relative="1" as="geometry">
            <mxPoint x="2432.17" y="575" as="sourcePoint" />
            <mxPoint x="2582.5" y="615" as="targetPoint" />
            <Array as="points">
              <mxPoint x="2580" y="610" />
            </Array>
          </mxGeometry>
        </mxCell>
        <mxCell id="9sgDPegWHwrfpYR-LG1N-37" value="&lt;font style=&quot;font-size: 10px;&quot;&gt;get_logs_of_changes&lt;br&gt;&lt;/font&gt;" style="rounded=0;whiteSpace=wrap;html=1;" vertex="1" parent="1">
          <mxGeometry x="2020" y="760" width="200" height="40" as="geometry" />
        </mxCell>
        <mxCell id="9sgDPegWHwrfpYR-LG1N-38" value="" style="whiteSpace=wrap;html=1;aspect=fixed;dashed=1;fillOpacity=0;" vertex="1" parent="1">
          <mxGeometry x="1570" y="360" width="330" height="330" as="geometry" />
        </mxCell>
        <mxCell id="9sgDPegWHwrfpYR-LG1N-39" value="" style="endArrow=classic;html=1;rounded=0;exitX=0.5;exitY=1;exitDx=0;exitDy=0;entryX=0.5;entryY=0;entryDx=0;entryDy=0;" edge="1" parent="1">
          <mxGeometry width="50" height="50" relative="1" as="geometry">
            <mxPoint x="2119.57" y="800" as="sourcePoint" />
            <mxPoint x="2120.07" y="850" as="targetPoint" />
          </mxGeometry>
        </mxCell>
        <mxCell id="9sgDPegWHwrfpYR-LG1N-40" value="&lt;font style=&quot;font-size: 10px;&quot;&gt;collect_logs_in_data_structure&lt;br&gt;&lt;/font&gt;" style="rounded=0;whiteSpace=wrap;html=1;" vertex="1" parent="1">
          <mxGeometry x="2020" y="850" width="200" height="40" as="geometry" />
        </mxCell>
        <mxCell id="9sgDPegWHwrfpYR-LG1N-41" value="" style="endArrow=classic;html=1;rounded=0;exitX=0.5;exitY=1;exitDx=0;exitDy=0;entryX=0.5;entryY=0;entryDx=0;entryDy=0;" edge="1" parent="1" target="9sgDPegWHwrfpYR-LG1N-37">
          <mxGeometry width="50" height="50" relative="1" as="geometry">
            <mxPoint x="2119.55" y="610" as="sourcePoint" />
            <mxPoint x="2120.05" y="660" as="targetPoint" />
          </mxGeometry>
        </mxCell>
        <mxCell id="9sgDPegWHwrfpYR-LG1N-42" value="&lt;font style=&quot;font-size: 10px;&quot;&gt;get_garage_camera_images&lt;br&gt;&lt;/font&gt;" style="rounded=0;whiteSpace=wrap;html=1;" vertex="1" parent="1">
          <mxGeometry x="1635" y="400" width="200" height="40" as="geometry" />
        </mxCell>
        <mxCell id="9sgDPegWHwrfpYR-LG1N-43" value="&lt;font style=&quot;font-size: 10px;&quot;&gt;detect_vehicles&lt;br&gt;&lt;/font&gt;" style="rounded=0;whiteSpace=wrap;html=1;" vertex="1" parent="1">
          <mxGeometry x="1580" y="490" width="150" height="40" as="geometry" />
        </mxCell>
        <mxCell id="9sgDPegWHwrfpYR-LG1N-45" value="&lt;font style=&quot;font-size: 10px;&quot;&gt;get_light_intensity&lt;br&gt;&lt;/font&gt;" style="rounded=0;whiteSpace=wrap;html=1;" vertex="1" parent="1">
          <mxGeometry x="1750" y="490" width="140" height="40" as="geometry" />
        </mxCell>
        <mxCell id="9sgDPegWHwrfpYR-LG1N-46" value="" style="endArrow=classic;html=1;rounded=0;entryX=0.5;entryY=0;entryDx=0;entryDy=0;" edge="1" parent="1" target="9sgDPegWHwrfpYR-LG1N-38">
          <mxGeometry width="50" height="50" relative="1" as="geometry">
            <mxPoint x="2120" y="260" as="sourcePoint" />
            <mxPoint x="1990" y="330" as="targetPoint" />
          </mxGeometry>
        </mxCell>
        <mxCell id="9sgDPegWHwrfpYR-LG1N-47" value="" style="endArrow=classic;html=1;rounded=0;exitX=0.5;exitY=1;exitDx=0;exitDy=0;entryX=0.5;entryY=0;entryDx=0;entryDy=0;" edge="1" parent="1" target="9sgDPegWHwrfpYR-LG1N-43">
          <mxGeometry width="50" height="50" relative="1" as="geometry">
            <mxPoint x="1740" y="441" as="sourcePoint" />
            <mxPoint x="1740.1999999999998" y="480" as="targetPoint" />
          </mxGeometry>
        </mxCell>
        <mxCell id="9sgDPegWHwrfpYR-LG1N-48" value="" style="endArrow=classic;html=1;rounded=0;exitX=0.5;exitY=1;exitDx=0;exitDy=0;" edge="1" parent="1">
          <mxGeometry width="50" height="50" relative="1" as="geometry">
            <mxPoint x="1739.69" y="361" as="sourcePoint" />
            <mxPoint x="1739.8899999999999" y="400" as="targetPoint" />
          </mxGeometry>
        </mxCell>
        <mxCell id="9sgDPegWHwrfpYR-LG1N-49" value="" style="endArrow=classic;html=1;rounded=0;entryX=0.5;entryY=0;entryDx=0;entryDy=0;" edge="1" parent="1" target="9sgDPegWHwrfpYR-LG1N-45">
          <mxGeometry width="50" height="50" relative="1" as="geometry">
            <mxPoint x="1740" y="440" as="sourcePoint" />
            <mxPoint x="1750.1999999999998" y="490" as="targetPoint" />
          </mxGeometry>
        </mxCell>
        <mxCell id="9sgDPegWHwrfpYR-LG1N-50" value="&lt;font style=&quot;font-size: 10px;&quot;&gt;set_light_intensity&lt;br&gt;&lt;/font&gt;" style="rounded=0;whiteSpace=wrap;html=1;" vertex="1" parent="1">
          <mxGeometry x="1750" y="570" width="140" height="40" as="geometry" />
        </mxCell>
        <mxCell id="9sgDPegWHwrfpYR-LG1N-51" value="&lt;font style=&quot;font-size: 10px;&quot;&gt;set_garage_door_state&lt;br&gt;&lt;/font&gt;" style="rounded=0;whiteSpace=wrap;html=1;" vertex="1" parent="1">
          <mxGeometry x="1580" y="570" width="150" height="40" as="geometry" />
        </mxCell>
        <mxCell id="9sgDPegWHwrfpYR-LG1N-52" value="" style="endArrow=classic;html=1;rounded=0;exitX=0.5;exitY=1;exitDx=0;exitDy=0;entryX=0.5;entryY=0;entryDx=0;entryDy=0;" edge="1" parent="1" target="9sgDPegWHwrfpYR-LG1N-51">
          <mxGeometry width="50" height="50" relative="1" as="geometry">
            <mxPoint x="1654.78" y="530" as="sourcePoint" />
            <mxPoint x="1654.9799999999998" y="569" as="targetPoint" />
          </mxGeometry>
        </mxCell>
        <mxCell id="9sgDPegWHwrfpYR-LG1N-53" value="" style="endArrow=classic;html=1;rounded=0;exitX=0.5;exitY=1;exitDx=0;exitDy=0;entryX=0.5;entryY=0;entryDx=0;entryDy=0;" edge="1" parent="1" target="9sgDPegWHwrfpYR-LG1N-50">
          <mxGeometry width="50" height="50" relative="1" as="geometry">
            <mxPoint x="1819.8799999999999" y="530" as="sourcePoint" />
            <mxPoint x="1820.0799999999997" y="569" as="targetPoint" />
          </mxGeometry>
        </mxCell>
        <mxCell id="9sgDPegWHwrfpYR-LG1N-55" value="" style="ellipse;whiteSpace=wrap;html=1;aspect=fixed;fillColor=#000000;" vertex="1" parent="1">
          <mxGeometry x="2100" y="940" width="40" height="40" as="geometry" />
        </mxCell>
        <mxCell id="9sgDPegWHwrfpYR-LG1N-56" value="" style="endArrow=classic;html=1;rounded=0;exitX=0.5;exitY=1;exitDx=0;exitDy=0;entryX=0.5;entryY=0;entryDx=0;entryDy=0;" edge="1" parent="1">
          <mxGeometry width="50" height="50" relative="1" as="geometry">
            <mxPoint x="2119.7200000000003" y="890" as="sourcePoint" />
            <mxPoint x="2120.2200000000003" y="940" as="targetPoint" />
          </mxGeometry>
        </mxCell>
        <mxCell id="9sgDPegWHwrfpYR-LG1N-57" value="" style="endArrow=classic;html=1;rounded=0;exitX=0.5;exitY=1;exitDx=0;exitDy=0;entryX=0.5;entryY=0;entryDx=0;entryDy=0;" edge="1" parent="1" source="9sgDPegWHwrfpYR-LG1N-32" target="9sgDPegWHwrfpYR-LG1N-37">
          <mxGeometry width="50" height="50" relative="1" as="geometry">
            <mxPoint x="2501.9700000000003" y="680" as="sourcePoint" />
            <mxPoint x="2502.42" y="830" as="targetPoint" />
            <Array as="points">
              <mxPoint x="2503" y="720" />
            </Array>
          </mxGeometry>
        </mxCell>
        <mxCell id="9sgDPegWHwrfpYR-LG1N-58" value="" style="endArrow=classic;html=1;rounded=0;exitX=0.5;exitY=1;exitDx=0;exitDy=0;entryX=0.5;entryY=0;entryDx=0;entryDy=0;" edge="1" parent="1" source="9sgDPegWHwrfpYR-LG1N-51" target="9sgDPegWHwrfpYR-LG1N-37">
          <mxGeometry width="50" height="50" relative="1" as="geometry">
            <mxPoint x="1664.78" y="540" as="sourcePoint" />
            <mxPoint x="1665" y="580" as="targetPoint" />
            <Array as="points">
              <mxPoint x="1655" y="710" />
            </Array>
          </mxGeometry>
        </mxCell>
        <mxCell id="9sgDPegWHwrfpYR-LG1N-59" value="" style="endArrow=classic;html=1;rounded=0;exitX=0.5;exitY=1;exitDx=0;exitDy=0;" edge="1" parent="1" source="9sgDPegWHwrfpYR-LG1N-50">
          <mxGeometry width="50" height="50" relative="1" as="geometry">
            <mxPoint x="1790" y="790" as="sourcePoint" />
            <mxPoint x="2120" y="760" as="targetPoint" />
            <Array as="points">
              <mxPoint x="1820" y="660" />
            </Array>
          </mxGeometry>
        </mxCell>
      </root>
    </mxGraphModel>
  </diagram>
</mxfile>
